<?xml version="1.0" standalone="no"?>
<!DOCTYPE svg PUBLIC "-//W3C//DTD SVG 20010904//EN"
 "http://www.w3.org/TR/2001/REC-SVG-20010904/DTD/svg10.dtd">
<svg version="1.0" xmlns="http://www.w3.org/2000/svg"
 width="195.000000pt" height="259.000000pt" viewBox="0 0 195.000000 259.000000"
 preserveAspectRatio="xMidYMid meet">

<g transform="translate(0.000000,259.000000) scale(0.100000,-0.100000)"
fill="#000000" stroke="none">
<path d="M0 1463 l0 -1126 21 19 c12 10 28 31 35 47 8 15 19 25 24 22 6 -4 14
5 20 19 10 27 52 37 65 16 5 -8 11 -7 21 1 8 6 14 8 14 3 0 -5 7 0 15 10 15
20 15 20 16 0 0 -14 4 -10 15 13 14 32 34 52 34 34 0 -5 11 -22 25 -37 l24
-26 -45 -48 c-42 -45 -48 -48 -111 -54 -36 -4 -77 -13 -92 -20 -14 -8 -39 -12
-54 -9 l-27 5 1 -168 c0 -104 4 -161 9 -149 7 17 9 17 9 3 1 -10 8 -18 16 -18
7 0 19 8 24 18 10 16 10 16 11 0 0 -33 26 -19 37 19 l10 38 2 -32 c1 -33 15
-51 26 -33 4 6 10 8 15 5 5 -3 12 7 16 22 7 29 22 53 33 53 9 0 31 -51 31 -72
0 -30 44 -23 58 9 l12 28 -4 -27 -3 -28 143 0 144 0 0 33 c0 17 3 42 6 55 11
40 24 23 24 -33 0 -42 3 -55 15 -55 24 0 18 115 -9 181 -5 11 3 29 24 53 35
40 55 39 39 -1 -13 -35 -15 -149 -3 -193 7 -23 16 -36 30 -38 19 -3 20 1 16
57 -7 93 4 131 39 144 17 7 29 19 29 30 0 32 17 9 18 -24 1 -51 13 -108 23
-115 5 -3 9 2 9 10 0 9 5 16 11 16 6 0 8 -21 5 -60 -3 -36 -2 -60 4 -60 6 0
10 8 10 17 0 15 2 14 14 -2 14 -19 14 -19 36 0 18 16 23 17 30 5 7 -11 10 -3
10 25 1 22 10 56 21 75 l20 35 -6 -80 c-3 -47 -1 -75 4 -70 5 6 11 19 14 30 3
14 5 11 6 -10 1 -23 3 -27 11 -15 6 10 10 11 10 3 0 -9 19 -13 60 -13 l60 0 1
53 c1 28 1 55 0 60 0 4 3 7 8 7 4 0 11 -27 15 -60 l7 -60 124 0 c86 0 125 4
125 11 0 8 5 7 15 -1 22 -18 28 -7 13 21 -8 14 -22 24 -33 23 -22 0 -45 13
-45 27 0 5 10 9 22 9 32 0 14 12 -29 19 -25 4 -39 12 -41 24 -3 14 5 17 45 18
43 0 45 1 23 11 -29 12 -140 4 -171 -12 -12 -7 -18 -18 -15 -26 3 -8 1 -14 -5
-14 -6 0 -13 9 -16 21 -4 16 -8 17 -14 7 -7 -10 -9 -10 -9 0 0 6 -9 12 -19 12
-25 0 -35 31 -26 77 8 43 35 77 35 44 0 -25 22 -27 44 -5 15 14 16 14 16 -1 0
-11 5 -15 15 -11 24 9 17 -12 -10 -30 -14 -9 -25 -24 -25 -33 0 -14 2 -14 11
-1 8 11 12 12 16 3 7 -18 33 -16 75 5 19 10 45 17 56 16 12 -2 22 3 25 15 2
10 -1 18 -7 18 -6 0 -31 1 -56 2 -37 1 -42 3 -27 12 10 6 34 9 53 7 29 -3 32
-2 21 12 -7 8 -23 36 -36 62 -33 66 -76 111 -159 163 -1 1 3 16 9 34 9 26 9
35 -2 41 -7 5 -17 6 -21 4 -13 -8 6 31 30 61 18 22 25 26 31 16 6 -10 10 -10
16 -2 4 7 1 18 -5 26 -17 20 -4 35 33 36 18 1 24 3 15 6 -10 2 -18 9 -18 14 0
5 16 2 36 -6 20 -8 45 -15 55 -15 20 0 53 -29 44 -39 -4 -3 -11 2 -16 12 -6 9
-20 16 -32 16 -17 -1 -18 -2 -4 -6 9 -2 17 -8 17 -13 0 -4 -9 -6 -20 -3 -12 3
-20 0 -20 -6 0 -7 6 -11 13 -10 29 4 38 -3 53 -41 14 -35 20 -40 49 -40 18 0
38 6 44 14 6 7 22 11 35 9 21 -4 26 -14 37 -69 7 -35 16 -64 21 -64 4 0 8 -11
8 -25 0 -14 4 -25 8 -25 4 0 14 -16 21 -35 12 -34 25 -44 35 -26 3 4 18 6 33
4 27 -4 27 -4 9 11 -18 14 -15 21 7 17 4 -1 16 6 25 16 16 15 17 15 20 0 2 -9
8 -17 13 -17 17 0 69 -57 70 -76 0 -11 3 -14 6 -6 7 19 23 4 23 -23 0 -13 4
-25 8 -27 15 -6 52 -75 52 -96 0 -11 4 -24 10 -27 6 -4 10 415 10 1219 l0
1226 -975 0 -975 0 0 -1127z m877 922 c8 -22 -4 -30 -22 -15 -8 7 -15 8 -15 3
0 -18 25 -33 57 -33 25 0 31 4 27 15 -7 16 -5 16 70 18 33 0 51 -4 54 -13 3
-8 0 -10 -8 -5 -9 5 -11 4 -6 -3 17 -27 96 -8 96 23 0 5 -5 3 -10 -5 -7 -11
-12 -12 -20 -4 -8 8 -7 14 3 23 11 9 17 8 28 -5 10 -13 10 -19 0 -36 -12 -19
-11 -20 11 -15 12 4 30 7 38 7 13 0 13 1 0 10 -23 14 2 34 31 24 13 -4 48 -7
77 -5 33 2 52 -1 52 -8 0 -6 8 -11 18 -11 14 0 15 2 2 10 -13 8 -12 10 3 10 9
0 17 -7 17 -15 0 -16 27 -20 49 -6 15 10 7 31 -12 31 -8 0 -8 -3 2 -9 9 -6 10
-11 2 -15 -16 -10 -31 2 -24 19 7 20 42 19 49 0 16 -41 -44 -57 -109 -30 -33
14 -35 13 -41 -8 -6 -19 -8 -20 -18 -6 -10 14 -16 15 -57 2 -32 -10 -74 -13
-136 -9 -105 5 -93 3 -91 19 0 6 -3 13 -9 14 -5 2 -10 -5 -10 -14 0 -14 -13
-17 -70 -21 -75 -4 -158 5 -151 16 2 4 -9 7 -24 8 -17 1 -31 -5 -34 -13 -3 -8
-11 -11 -17 -8 -6 4 -8 13 -5 21 7 17 6 17 -37 -1 -45 -19 -91 -19 -106 -1
-17 20 -2 48 23 44 24 -3 29 -29 7 -36 -10 -3 -12 0 -8 12 4 9 2 16 -4 16 -6
0 -9 -8 -7 -17 4 -23 48 -31 48 -9 0 9 7 16 16 16 8 0 12 -4 9 -10 -3 -5 -2
-10 4 -10 5 0 13 5 16 10 4 6 32 10 63 10 31 -1 66 0 77 2 13 2 20 -3 20 -12
0 -18 14 -30 38 -30 15 0 16 3 7 21 -9 15 -8 24 1 35 15 18 28 18 36 -1z
m-657 -140 c0 -43 1 -45 30 -45 29 0 30 2 30 46 0 28 4 44 11 42 16 -5 18
-198 2 -198 -9 0 -13 17 -13 50 0 49 0 50 -31 50 -31 0 -31 0 -27 -50 2 -35
-1 -50 -9 -50 -10 0 -13 27 -13 100 0 60 4 100 10 100 6 0 10 -20 10 -45z
m210 35 c49 -26 45 -153 -5 -186 -23 -15 -27 -15 -50 0 -32 21 -50 86 -36 129
21 59 51 78 91 57z m82 -50 c-2 -32 -1 -76 2 -96 6 -29 11 -35 27 -31 10 3 19
1 19 -4 0 -5 -15 -9 -32 -9 l-33 0 0 100 c0 64 4 100 11 100 6 0 9 -21 6 -60z
m99 -33 c-2 -73 0 -88 14 -94 10 -3 21 0 26 8 7 11 9 11 9 -3 0 -14 -8 -18
-35 -18 l-35 0 0 101 c0 71 3 100 11 97 8 -3 11 -33 10 -91z m164 73 c21 -24
30 -95 16 -132 -12 -33 -52 -61 -75 -52 -45 17 -60 116 -26 172 23 37 57 43
85 12z m75 -52 l13 -73 14 55 c22 88 25 89 43 15 l17 -70 11 53 c7 29 12 62
12 72 0 11 5 20 11 20 7 0 8 -12 4 -32 -25 -121 -38 -168 -45 -163 -4 3 -11
27 -15 53 -10 78 -21 80 -35 8 -7 -36 -15 -66 -19 -66 -3 0 -16 45 -27 100
-14 69 -16 100 -9 100 7 0 18 -33 25 -72z m242 30 l3 -43 23 43 c12 23 27 42
32 42 6 0 -1 -18 -15 -40 -14 -22 -25 -45 -25 -52 0 -15 48 -89 64 -100 6 -5
2 -8 -10 -8 -14 0 -29 15 -48 48 l-27 47 3 -47 c2 -37 0 -48 -12 -48 -13 0
-14 16 -12 100 3 101 18 137 24 58z m153 -38 c44 -82 46 -82 43 3 -2 42 0 77
4 77 5 0 8 -45 8 -100 0 -55 -2 -100 -5 -100 -2 0 -23 32 -46 70 -23 39 -43
70 -45 70 -6 0 4 -119 11 -130 3 -5 -1 -10 -9 -10 -14 0 -16 16 -16 103 1 113
4 114 55 17z m117 -20 c2 -75 0 -100 -9 -100 -10 0 -13 27 -13 100 0 55 4 100
9 100 5 0 11 -45 13 -100z m146 70 l4 -25 -22 23 c-24 26 -30 27 -55 8 -43
-31 -14 -166 36 -166 19 0 21 5 17 45 -2 31 1 45 9 45 9 0 13 -16 13 -45 0
-39 -4 -47 -25 -57 -74 -33 -128 119 -64 183 30 30 83 23 87 -11z m62 -15 c0
-43 1 -45 30 -45 29 0 30 2 30 46 0 28 4 44 11 42 16 -5 18 -198 2 -198 -9 0
-13 17 -13 50 0 49 0 50 -31 50 -31 0 -31 0 -27 -50 2 -35 -1 -50 -9 -50 -10
0 -13 27 -13 100 0 60 4 100 10 100 6 0 10 -20 10 -45z m220 31 c0 -9 -7 -12
-20 -9 -19 5 -20 0 -20 -86 0 -66 -3 -91 -12 -91 -10 0 -12 23 -10 91 l3 92
-25 -5 c-25 -5 -33 2 -19 15 3 4 28 7 55 7 35 0 48 -4 48 -14z m-1472 -243 c2
-16 -2 -23 -12 -23 -9 0 -16 5 -16 11 0 5 5 7 11 3 7 -4 10 -1 7 6 -6 20 -25
23 -31 6 -9 -22 19 -46 53 -46 23 0 27 3 23 20 -4 14 0 20 12 20 12 0 15 -5
10 -20 -6 -17 -2 -20 28 -20 19 0 49 3 66 6 26 5 29 9 20 21 -16 18 12 49 35
40 22 -9 20 -37 -1 -37 -14 0 -15 2 -4 9 10 6 10 10 1 16 -16 10 -24 -1 -16
-21 5 -13 15 -15 54 -10 26 4 62 12 81 18 21 6 73 8 130 5 59 -3 90 -2 80 4
-11 7 -8 9 11 10 14 0 33 2 43 4 9 2 15 -1 12 -5 -3 -5 -1 -11 5 -15 5 -3 10
-1 10 5 0 6 4 9 9 5 5 -3 12 -1 16 5 8 13 52 13 60 0 3 -5 13 -7 23 -4 14 5
15 4 2 -5 -13 -9 -13 -11 0 -11 13 0 13 -1 0 -10 -22 -14 -28 -12 -26 7 1 20
-29 29 -48 14 -6 -5 -13 -28 -14 -51 -3 -39 -2 -40 31 -40 18 0 38 5 44 11 8
8 13 7 18 -2 5 -7 4 -10 -2 -6 -6 4 -13 1 -16 -6 -3 -8 -17 -13 -34 -12 -16 1
-19 0 -6 -2 15 -3 20 -9 16 -21 -5 -12 1 -11 25 7 29 20 37 32 33 54 -2 16 18
6 24 -13 3 -11 11 -20 16 -20 6 0 8 4 4 9 -3 5 6 22 21 38 l26 28 -24 6 c-17
4 -11 7 26 12 77 11 132 8 222 -10 62 -13 86 -15 95 -6 12 12 4 33 -13 33 -5
0 -8 -7 -4 -15 6 -16 -9 -21 -18 -6 -9 14 22 34 40 27 11 -4 15 -14 11 -31 -3
-20 1 -27 18 -31 36 -9 98 0 103 15 3 8 0 11 -7 7 -6 -4 -11 -2 -11 3 0 6 7
11 16 11 12 0 15 -6 11 -21 -5 -18 -1 -20 30 -17 41 3 65 30 45 50 -6 6 -15 8
-19 4 -4 -4 -1 -11 6 -15 10 -7 10 -10 1 -16 -16 -10 -34 10 -26 30 9 25 50
15 54 -13 7 -50 -40 -65 -163 -51 -51 5 -77 4 -97 -6 -26 -12 -38 -10 -38 6 0
5 6 6 14 3 8 -3 16 -2 19 3 6 9 -26 15 -98 17 -40 1 -50 -2 -53 -16 -2 -10 1
-18 7 -18 6 0 8 7 5 15 -6 15 7 21 19 9 9 -9 -3 -34 -17 -34 -16 0 -43 34 -38
48 2 7 -1 12 -8 12 -6 0 -8 -4 -5 -10 3 -5 1 -10 -4 -10 -6 0 -11 7 -11 16 0
14 -3 14 -15 4 -17 -14 -11 -25 20 -33 14 -4 10 -6 -10 -5 -61 1 -70 -1 -58
-13 22 -22 2 -39 -44 -39 -27 0 -42 -4 -38 -10 3 -5 1 -10 -4 -10 -6 0 -11 5
-11 11 0 6 -6 9 -13 7 -6 -3 -12 -11 -12 -19 0 -8 -8 -13 -18 -13 -10 1 -17
-3 -16 -10 3 -14 -12 -48 -27 -63 -9 -10 -14 -9 -20 5 -4 9 -6 21 -5 25 0 4
-5 10 -13 13 -12 5 -12 9 2 25 16 19 17 19 22 -20 5 -40 5 -40 17 -16 6 14 7
23 2 19 -5 -3 -9 4 -9 15 0 23 -22 41 -28 23 -2 -7 -8 -10 -13 -6 -5 3 -9 0
-9 -5 0 -6 -4 -11 -10 -11 -5 0 -10 9 -10 20 0 11 -7 20 -15 20 -8 0 -15 -6
-15 -12 0 -10 -2 -10 -8 -1 -4 6 -25 13 -47 15 -34 2 -40 6 -39 25 1 25 -20
33 -56 22 -14 -4 -19 -7 -12 -8 17 -1 15 -28 -2 -34 -8 -3 -20 1 -26 9 -7 8
-18 14 -26 14 -19 0 -28 20 -15 33 9 9 11 8 6 -5 -4 -10 -3 -18 3 -18 6 0 9 8
8 18 -3 14 -13 17 -59 17 -35 0 -61 -6 -69 -14 -10 -11 -10 -12 0 -7 6 4 12 3
12 -2 0 -16 -13 -22 -27 -11 -7 6 -13 8 -13 3 0 -5 -4 -4 -8 3 -6 9 -24 10
-70 3 -59 -8 -116 -6 -154 6 -20 6 -34 46 -23 64 12 19 50 7 53 -17z m797 15
c18 1 19 0 2 -9 -9 -6 -22 -7 -29 -3 -7 4 -8 3 -4 -4 4 -7 2 -10 -7 -6 -7 2
-14 12 -14 20 0 10 6 13 16 8 9 -4 25 -6 36 -6z m-118 -24 c-3 -3 -12 -4 -19
-1 -8 3 -5 6 6 6 11 1 17 -2 13 -5z m119 -15 c3 -6 1 -16 -5 -22 -9 -9 -14 -8
-21 3 -9 15 -4 30 10 30 5 0 12 -5 16 -11z m-61 -19 c-11 -5 -27 -9 -35 -9
-13 -1 -13 0 0 9 8 5 24 9 35 9 l20 0 -20 -9z m225 -35 c0 -21 -19 -28 -36
-14 -14 12 -14 14 2 26 19 14 34 9 34 -12z m-445 -311 c-24 -46 -19 -94 15
-148 31 -48 31 -48 52 -30 33 31 142 24 215 -12 67 -34 90 -63 97 -124 3 -25
2 -36 -1 -25 -14 52 -49 53 -58 2 -8 -40 15 -112 35 -112 8 0 16 11 18 25 7
49 25 47 19 -2 -6 -59 -28 -94 -71 -115 -32 -15 -35 -14 -55 6 -25 25 -88 28
-149 7 -36 -13 -42 -13 -69 4 -61 37 -93 109 -93 213 0 47 3 57 17 57 13 0 10
7 -14 33 -45 47 -55 73 -55 139 0 48 4 64 22 83 19 20 26 22 43 14 13 -7 17
-7 13 -1 -3 6 2 12 11 14 25 6 25 5 8 -28z m346 -81 c15 -15 21 -35 22 -71 1
-28 -1 -53 -5 -57 -10 -10 -57 27 -58 46 0 8 -10 36 -23 61 l-23 45 33 -2 c19
0 42 -10 54 -22z m-783 -71 c2 -7 -3 -12 -12 -12 -9 0 -16 7 -16 16 0 17 22
14 28 -4z m-171 -94 c-3 -8 -6 -5 -6 6 -1 11 2 17 5 13 3 -3 4 -12 1 -19z
m100 -100 c-3 -8 -6 -5 -6 6 -1 11 2 17 5 13 3 -3 4 -12 1 -19z m1118 -178 c3
-5 -1 -10 -9 -10 -9 0 -16 5 -16 10 0 6 4 10 9 10 6 0 13 -4 16 -10z m-158
-322 c-7 -4 2 -8 18 -8 17 0 40 -7 53 -15 12 -9 52 -32 89 -51 61 -31 57 -37
-7 -11 -14 6 -54 18 -90 28 -35 10 -70 25 -77 34 -6 10 -16 14 -22 11 -16 -10
-92 15 -99 32 -3 9 4 23 17 33 21 17 23 17 75 -14 34 -20 50 -35 43 -39z
m-444 25 c-7 -2 -19 -2 -25 0 -7 3 -2 5 12 5 14 0 19 -2 13 -5z m7 -23 c0 -5
-6 -10 -14 -10 -8 0 -18 5 -21 10 -3 6 3 10 14 10 12 0 21 -4 21 -10z m170
-34 c0 -2 -9 -6 -20 -9 -11 -3 -18 -1 -14 4 5 9 34 13 34 5z m34 -15 c3 -5 -1
-11 -9 -14 -9 -4 -12 -1 -8 9 6 16 10 17 17 5z m453 3 c-3 -3 -12 -4 -19 -1
-8 3 -5 6 6 6 11 1 17 -2 13 -5z m-4 -16 c19 4 23 -13 5 -24 -7 -5 -8 -3 -3 6
6 10 4 12 -8 7 -9 -3 -21 1 -29 11 -11 13 -11 14 2 7 8 -5 23 -8 33 -7z m189
-30 c-9 -9 -12 -7 -12 12 0 19 3 21 12 12 9 -9 9 -15 0 -24z m-946 -13 c23
-22 44 -33 54 -30 11 5 12 3 4 -5 -6 -6 -42 -16 -80 -22 -38 -5 -77 -14 -86
-19 -16 -8 -18 -4 -18 41 l0 50 23 -15 c22 -14 24 -14 35 10 15 33 22 32 68
-10z m81 -17 c-3 -8 -6 -5 -6 6 -1 11 2 17 5 13 3 -3 4 -12 1 -19z m243 -14
c0 -14 -52 -104 -60 -104 -14 0 -13 13 6 76 14 48 17 53 35 44 10 -6 19 -13
19 -16z m-670 12 c0 -3 -4 -8 -10 -11 -5 -3 -10 -1 -10 4 0 6 5 11 10 11 6 0
10 -2 10 -4z m790 -25 c-11 -22 -29 -35 -36 -28 -9 8 20 47 34 47 9 0 10 -5 2
-19z m353 5 c-7 -27 -11 -29 -21 -9 -10 18 -9 21 6 19 9 -2 16 -6 15 -10z
m-1313 -6 c0 -5 -4 -10 -10 -10 -5 0 -10 5 -10 10 0 6 5 10 10 10 6 0 10 -4
10 -10z m130 -26 c0 -9 -5 -14 -12 -12 -18 6 -21 28 -4 28 9 0 16 -7 16 -16z
m46 -41 c-10 -10 -19 5 -10 18 6 11 8 11 12 0 2 -7 1 -15 -2 -18z m111 1 c-3
-3 -12 -4 -19 -1 -8 3 -5 6 6 6 11 1 17 -2 13 -5z m-2 -26 c0 -4 -20 -18 -45
-31 -25 -13 -63 -34 -84 -47 -24 -14 -36 -18 -31 -10 6 8 10 17 11 20 0 3 7
18 14 33 13 27 17 28 53 23 32 -5 38 -4 34 8 -4 11 1 14 21 13 15 -1 27 -6 27
-9z m1385 -81 c0 -16 -4 -26 -10 -22 -5 3 -10 23 -10 43 0 28 3 33 10 22 5 -8
10 -28 10 -43z m-810 28 c0 -8 -4 -15 -10 -15 -5 0 -10 7 -10 15 0 8 5 15 10
15 6 0 10 -7 10 -15z m-230 -24 c0 -6 -12 -30 -27 -54 -19 -29 -38 -47 -61
-54 -30 -9 -32 -9 -26 10 18 57 37 89 57 97 30 12 57 12 57 1z m276 -24 c-7
-37 -75 -171 -83 -163 -9 9 73 196 86 196 2 0 0 -15 -3 -33z m-154 1 c-7 -7
-12 -8 -12 -2 0 14 12 26 19 19 2 -3 -1 -11 -7 -17z m83 -25 c-9 -20 -18 -39
-20 -42 -11 -10 -4 41 7 59 21 33 29 22 13 -17z m-66 -45 c-9 -56 -11 -59 -51
-76 -25 -10 -28 -9 -28 7 0 29 21 81 33 82 7 1 18 1 25 0 6 -1 12 7 12 19 0
11 4 20 9 20 4 0 4 -23 0 -52z m181 28 c0 -2 -11 -43 -25 -90 -14 -47 -25 -95
-25 -106 0 -11 -4 -20 -10 -20 -12 0 -12 19 -1 91 11 66 36 129 50 129 6 0 11
-2 11 -4z m-490 -14 c0 -16 -79 -132 -90 -132 -30 0 17 102 58 124 33 18 32
18 32 8z m523 -72 c3 17 5 11 6 -16 1 -53 -9 -62 -26 -23 -18 43 -17 72 1 39
l14 -24 5 24z m-673 4 c0 -3 -9 -17 -20 -31 -21 -27 -27 -15 -10 18 10 18 30
27 30 13z m410 -120 c-4 -49 -16 -108 -26 -130 l-18 -39 -4 34 c-2 18 1 45 8
60 6 14 11 53 12 86 1 42 6 64 17 72 9 6 17 10 18 9 1 -1 -2 -42 -7 -92z m410
92 c0 -11 -19 -15 -25 -6 -3 5 1 10 9 10 9 0 16 -2 16 -4z m-512 -18 c-3 -7
-15 -14 -29 -16 -23 -2 -23 -2 -5 13 24 18 39 20 34 3z m9 -35 c-9 -9 -20 -13
-24 -9 -4 4 1 14 11 22 25 18 35 8 13 -13z m186 -13 c-3 -11 -9 -20 -14 -20
-5 0 -9 9 -9 20 0 11 6 20 14 20 9 0 12 -7 9 -20z m27 -76 c-6 -14 -10 -41
-10 -60 0 -19 -4 -34 -10 -34 -13 0 -13 61 0 94 5 14 14 26 20 26 6 0 6 -9 0
-26z m-626 -40 c31 -12 16 -19 -31 -15 -37 3 -43 6 -28 12 25 10 39 11 59 3z
m82 -81 c-7 -17 -8 -17 -17 0 -6 9 -7 27 -3 40 l7 22 10 -22 c5 -12 6 -30 3
-40z m-90 -4 l19 -22 -30 9 c-16 4 -47 8 -67 7 -52 -1 -48 15 5 20 23 2 45 4
48 5 3 1 14 -8 25 -19z"/>
<path d="M376 2264 c-24 -23 -21 -115 3 -145 16 -19 23 -22 38 -13 35 22 39
119 5 157 -19 21 -26 21 -46 1z"/>
<path d="M706 2258 c-33 -47 -9 -158 35 -158 27 0 42 43 36 104 -3 32 -11 54
-23 63 -24 18 -30 17 -48 -9z"/>
<path d="M668 2018 c9 -9 15 -9 24 0 9 9 7 12 -12 12 -19 0 -21 -3 -12 -12z"/>
<path d="M733 2019 c1 -6 -4 -14 -12 -17 -9 -3 -11 0 -6 8 5 9 4 11 -4 6 -6
-4 -9 -11 -6 -16 3 -5 1 -11 -5 -15 -5 -3 -10 -12 -10 -18 0 -7 5 -4 11 6 5 9
21 17 34 17 27 0 28 1 19 24 -7 18 -25 22 -21 5z"/>
<path d="M760 2026 c0 -13 34 -36 52 -36 20 0 21 1 3 20 -16 17 -55 28 -55 16z"/>
<path d="M892 2011 c12 -10 28 -16 35 -14 14 6 18 22 6 24 -5 1 -21 3 -36 5
l-28 3 23 -18z"/>
<path d="M1164 2016 c-10 -8 -16 -18 -12 -22 10 -9 58 12 58 26 0 14 -23 12
-46 -4z"/>
<path d="M1280 2020 c0 -13 11 -13 30 0 12 8 11 10 -7 10 -13 0 -23 -4 -23
-10z"/>
<path d="M840 1999 c6 -11 17 -22 25 -25 8 -3 11 -13 8 -22 -4 -13 -3 -14 5
-4 12 17 18 16 42 -8 24 -24 42 -26 34 -5 -4 8 -10 15 -16 15 -5 0 -6 9 -3 20
4 11 2 20 -4 20 -6 0 -11 -4 -11 -10 0 -5 -8 -10 -17 -10 -14 0 -15 2 -4 9 8
5 9 11 3 15 -6 3 -12 1 -14 -5 -4 -12 -38 -1 -38 13 0 5 5 6 12 2 7 -4 8 -3 4
4 -4 7 -14 12 -22 12 -12 0 -12 -4 -4 -21z"/>
<path d="M827 1960 c6 -21 18 -26 28 -11 3 6 -3 15 -14 20 -16 9 -18 8 -14 -9z"/>
<path d="M1133 1973 c-17 -6 -17 -33 0 -33 7 0 13 9 14 20 1 11 1 20 0 19 -1
0 -8 -3 -14 -6z"/>
<path d="M800 1949 c0 -5 5 -7 10 -4 6 3 10 8 10 11 0 2 -4 4 -10 4 -5 0 -10
-5 -10 -11z"/>
<path d="M976 1398 c-19 -11 -30 -67 -22 -111 12 -65 81 -103 106 -58 15 29
12 108 -5 140 -15 30 -52 44 -79 29z"/>
<path d="M1435 419 c4 -13 2 -18 -7 -16 -7 2 -10 2 -6 0 4 -3 17 -20 28 -39
20 -32 50 -46 50 -24 0 6 7 10 15 10 22 0 18 13 -15 47 -37 38 -74 51 -65 22z"/>
<path d="M1680 336 c0 -2 7 -9 15 -16 9 -7 15 -8 15 -2 0 5 -7 12 -15 16 -8 3
-15 4 -15 2z"/>
<path d="M1427 196 c10 -13 19 -23 21 -21 7 6 -19 45 -29 45 -5 0 -2 -11 8
-24z"/>
<path d="M1650 182 c0 -14 35 -42 53 -42 20 0 21 4 7 31 -10 19 -60 28 -60 11z"/>
</g>
</svg>
